MutatorSansLightWide.ufo
<glyph name="comma" format="2">
  <advance width="291"/>
  <unicode hex="002C"/>
  <outline>
    <contour>
      <point x="171" y="0" type="line"/>
      <point x="171" y="220" type="line"/>
      <point x="121" y="220" type="line"/>
      <point x="121" y="0" type="line"/>
      <point x="153" y="-8" type="line"/>
      <point x="142" y="12" type="line"/>
      <point x="120" y="-93" type="line"/>
      <point x="132" y="-95" type="line"/>
    </contour>
  </outline>
</glyph>
<glyph name="period" format="2">
  <advance width="290"/>
  <unicode hex="002E"/>
  <outline>
    <contour>
      <point x="120" y="0" type="line"/>
      <point x="170" y="0" type="line"/>
      <point x="170" y="220" type="line"/>
      <point x="120" y="220" type="line"/>
    </contour>
  </outline>
</glyph>
<glyph name="A" format="2">
  <advance width="1190"/>
  <unicode hex="0041"/>
  <outline>
    <contour>
      <point x="50" y="0" type="line"/>
      <point x="97" y="0" type="line"/>
      <point x="612" y="700" type="line"/>
      <point x="570" y="700" type="line"/>
    </contour>
    <contour>
      <point x="245" y="224" type="line"/>
      <point x="945" y="224" type="line"/>
      <point x="945" y="254" type="line"/>
      <point x="245" y="254" type="line"/>
    </contour>
    <contour>
      <point x="1087" y="0" type="line"/>
      <point x="1140" y="0" type="line"/>
      <point x="620" y="700" type="line"/>
      <point x="572" y="700" type="line"/>
    </contour>
    <contour>
      <point x="570" y="664" type="line"/>
      <point x="620" y="664" type="line"/>
      <point x="620" y="700" type="line"/>
      <point x="570" y="700" type="line"/>
    </contour>
  </outline>
</glyph>
<glyph name="B" format="2">
  <advance width="1173"/>
  <unicode hex="0042"/>
  <outline>
    <contour>
      <point x="120" y="0" type="line"/>
      <point x="160" y="0" type="line"/>
      <point x="160" y="700" type="line"/>
      <point x="120" y="700" type="line"/>
    </contour>
    <contour>
      <point x="140" y="333" type="line"/>
      <point x="880" y="333" type="line" smooth="yes"/>
      <point x="999" y="333"/>
      <point x="1054" y="269"/>
      <point x="1054" y="183" type="curve" smooth="yes"/>
      <point x="1054" y="97"/>
      <point x="999" y="36"/>
      <point x="880" y="36" type="curve" smooth="yes"/>
      <point x="140" y="36" type="line"/>
      <point x="140" y="0" type="line"/>
      <point x="870" y="0" type="line" smooth="yes"/>
      <point x="1030" y="0"/>
      <point x="1093" y="83"/>
      <point x="1093" y="183" type="curve" smooth="yes"/>
      <point x="1093" y="273"/>
      <point x="1043" y="347"/>
      <point x="920" y="363" type="curve"/>
      <point x="900" y="345" type="line"/>
      <point x="994" y="371"/>
      <point x="1033" y="439"/>
      <point x="1033" y="517" type="curve" smooth="yes"/>
      <point x="1033" y="618"/>
      <point x="970" y="700"/>
      <point x="810" y="700" type="curve" smooth="yes"/>
      <point x="140" y="700" type="line"/>
      <point x="140" y="664" type="line"/>
      <point x="820" y="664" type="line" smooth="yes"/>
      <point x="939" y="664"/>
      <point x="994" y="603"/>
      <point x="994" y="517" type="curve" smooth="yes"/>
      <point x="994" y="431"/>
      <point x="939" y="368"/>
      <point x="820" y="368" type="curve" smooth="yes"/>
      <point x="140" y="368" type="line"/>
    </contour>
  </outline>
</glyph>
<glyph name="C" format="2">
  <advance width="1303"/>
  <unicode hex="0043"/>
  <outline>
    <contour>
      <point x="1183" y="277" type="line"/>
      <point x="1143" y="102"/>
      <point x="956" y="26"/>
      <point x="680" y="26" type="curve" smooth="yes"/>
      <point x="630" y="26" type="line" smooth="yes"/>
      <point x="318" y="26"/>
      <point x="120" y="124"/>
      <point x="120" y="352" type="curve" smooth="yes"/>
      <point x="120" y="579"/>
      <point x="318" y="674"/>
      <point x="630" y="674" type="curve" smooth="yes"/>
      <point x="680" y="674" type="line" smooth="yes"/>
      <point x="954" y="674"/>
      <point x="1140" y="601"/>
      <point x="1182" y="431" type="curve"/>
      <point x="1222" y="435" type="line"/>
      <point x="1178" y="621"/>
      <point x="977" y="710"/>
      <point x="680" y="710" type="curve" smooth="yes"/>
      <point x="630" y="710" type="line" smooth="yes"/>
      <point x="292" y="710"/>
      <point x="80" y="595"/>
      <point x="80" y="352" type="curve" smooth="yes"/>
      <point x="80" y="108"/>
      <point x="292" y="-10"/>
      <point x="630" y="-10" type="curve" smooth="yes"/>
      <point x="680" y="-10" type="line" smooth="yes"/>
      <point x="979" y="-10"/>
      <point x="1180" y="82"/>
      <point x="1223" y="273" type="curve"/>
    </contour>
  </outline>
</glyph>
<glyph name="D" format="2">
  <advance width="1201"/>
  <unicode hex="0044"/>
  <outline>
    <contour>
      <point x="120" y="0" type="line"/>
      <point x="160" y="0" type="line"/>
      <point x="160" y="700" type="line"/>
      <point x="120" y="700" type="line"/>
    </contour>
    <contour>
      <point x="140" y="664" type="line"/>
      <point x="570" y="664" type="line" smooth="yes"/>
      <point x="883" y="664"/>
      <point x="1081" y="579"/>
      <point x="1081" y="352" type="curve" smooth="yes"/>
      <point x="1081" y="124"/>
      <point x="883" y="36"/>
      <point x="570" y="36" type="curve" smooth="yes"/>
      <point x="140" y="36" type="line"/>
      <point x="140" y="0" type="line"/>
      <point x="570" y="0" type="line" smooth="yes"/>
      <point x="908" y="0"/>
      <point x="1121" y="108"/>
      <point x="1121" y="352" type="curve" smooth="yes"/>
      <point x="1121" y="595"/>
      <point x="908" y="700"/>
      <point x="570" y="700" type="curve" smooth="yes"/>
      <point x="140" y="700" type="line"/>
    </contour>
  </outline>
</glyph>
<glyph name="E" format="2">
  <advance width="1010"/>
  <unicode hex="0045"/>
  <anchor x="532" y="746" name="top"/>
  <outline>
    <contour>
      <point x="120" y="0" type="line"/>
      <point x="160" y="0" type="line"/>
      <point x="160" y="700" type="line"/>
      <point x="120" y="700" type="line"/>
    </contour>
    <contour>
      <point x="140" y="664" type="line"/>
      <point x="940" y="664" type="line"/>
      <point x="940" y="700" type="line"/>
      <point x="140" y="700" type="line"/>
    </contour>
    <contour>
      <point x="140" y="0" type="line"/>
      <point x="940" y="0" type="line"/>
      <point x="940" y="36" type="line"/>
      <point x="140" y="36" type="line"/>
    </contour>
    <contour>
      <point x="140" y="334" type="line"/>
      <point x="860" y="334" type="line"/>
      <point x="860" y="370" type="line"/>
      <point x="140" y="370" type="line"/>
    </contour>
  </outline>
</glyph>
<glyph name="F" format="2">
  <advance width="1100"/>
  <unicode hex="0046"/>
  <guideline x="1113" y="537" angle="0" identifier="tCW6w1QdWl"/>
  <outline>
    <contour>
      <point x="120" y="0" type="line"/>
      <point x="160" y="0" type="line"/>
      <point x="160" y="700" type="line"/>
      <point x="120" y="700" type="line"/>
    </contour>
    <contour>
      <point x="140" y="664" type="line"/>
      <point x="980" y="664" type="line"/>
      <point x="980" y="700" type="line"/>
      <point x="140" y="700" type="line"/>
    </contour>
    <contour>
      <point x="140" y="294" type="line"/>
      <point x="960" y="294" type="line"/>
      <point x="960" y="330" type="line"/>
      <point x="140" y="330" type="line"/>
    </contour>
  </outline>
</glyph>
<glyph name="G" format="2">
  <advance width="1372"/>
  <unicode hex="0047"/>
  <outline>
    <contour>
      <point x="470" y="300" type="line"/>
      <point x="1229" y="300" type="line"/>
      <point x="1229" y="216" type="line"/>
      <point x="1247" y="0" type="line"/>
      <point x="1266" y="0" type="line"/>
      <point x="1266" y="330" type="line"/>
      <point x="470" y="330" type="line"/>
    </contour>
    <contour>
      <point x="1233" y="277" type="line"/>
      <point x="1193" y="102"/>
      <point x="1006" y="26"/>
      <point x="730" y="26" type="curve" smooth="yes"/>
      <point x="630" y="26" type="line" smooth="yes"/>
      <point x="318" y="26"/>
      <point x="120" y="124"/>
      <point x="120" y="352" type="curve" smooth="yes"/>
      <point x="120" y="579"/>
      <point x="318" y="674"/>
      <point x="630" y="674" type="curve" smooth="yes"/>
      <point x="730" y="674" type="line" smooth="yes"/>
      <point x="1004" y="674"/>
      <point x="1190" y="601"/>
      <point x="1232" y="431" type="curve"/>
      <point x="1272" y="435" type="line"/>
      <point x="1228" y="621"/>
      <point x="1027" y="710"/>
      <point x="730" y="710" type="curve" smooth="yes"/>
      <point x="630" y="710" type="line" smooth="yes"/>
      <point x="292" y="710"/>
      <point x="80" y="595"/>
      <point x="80" y="352" type="curve" smooth="yes"/>
      <point x="80" y="108"/>
      <point x="292" y="-10"/>
      <point x="630" y="-10" type="curve" smooth="yes"/>
      <point x="730" y="-10" type="line" smooth="yes"/>
      <point x="1029" y="-10"/>
      <point x="1220" y="82"/>
      <point x="1263" y="273" type="curve"/>
    </contour>
  </outline>
</glyph>
<glyph name="H" format="2">
  <advance width="1140"/>
  <unicode hex="0048"/>
  <outline>
    <contour>
      <point x="120" y="0" type="line"/>
      <point x="160" y="0" type="line"/>
      <point x="160" y="700" type="line"/>
      <point x="120" y="700" type="line"/>
    </contour>
    <contour>
      <point x="143" y="334" type="line"/>
      <point x="1004" y="334" type="line"/>
      <point x="1004" y="370" type="line"/>
      <point x="143" y="370" type="line"/>
    </contour>
    <contour>
      <point x="980" y="0" type="line"/>
      <point x="1020" y="0" type="line"/>
      <point x="1020" y="700" type="line"/>
      <point x="980" y="700" type="line"/>
    </contour>
  </outline>
</glyph>
<glyph name="I" format="2">
  <advance width="930"/>
  <unicode hex="0049"/>
  <outline>
    <contour>
      <point x="450" y="0" type="line"/>
      <point x="490" y="0" type="line"/>
      <point x="490" y="700" type="line"/>
      <point x="450" y="700" type="line"/>
    </contour>
    <contour>
      <point x="120" y="664" type="line"/>
      <point x="810" y="664" type="line"/>
      <point x="810" y="700" type="line"/>
      <point x="120" y="700" type="line"/>
    </contour>
    <contour>
      <point x="120" y="0" type="line"/>
      <point x="810" y="0" type="line"/>
      <point x="810" y="36" type="line"/>
      <point x="120" y="36" type="line"/>
    </contour>
  </outline>
</glyph>
<glyph name="J" format="2">
  <advance width="941"/>
  <unicode hex="004A"/>
  <outline>
    <contour>
      <point x="470" y="-10" type="curve" smooth="yes"/>
      <point x="684.7628032345013" y="-10.0"/>
      <point x="821" y="98.53846153846152"/>
      <point x="821" y="322" type="curve" smooth="yes"/>
      <point x="821" y="700" type="line"/>
      <point x="781" y="700" type="line"/>
      <point x="781" y="322" type="line" smooth="yes"/>
      <point x="781" y="115.01449275362319"/>
      <point x="659.7945619335347" y="26.0"/>
      <point x="470" y="26" type="curve" smooth="yes"/>
      <point x="256.8181818181818" y="26.0"/>
      <point x="120" y="103.01694915254237"/>
      <point x="120" y="282" type="curve" smooth="yes"/>
      <point x="120" y="330" type="line"/>
      <point x="80" y="330" type="line"/>
      <point x="80" y="282" type="line" smooth="yes"/>
      <point x="80" y="85.54411764705881"/>
      <point x="230.72972972972974" y="-10.0"/>
    </contour>
  </outline>
</glyph>
<glyph name="K" format="2">
  <advance width="1019"/>
  <unicode hex="004B"/>
  <outline>
    <contour>
      <point x="120" y="0" type="line"/>
      <point x="160" y="0" type="line"/>
      <point x="160" y="700" type="line"/>
      <point x="120" y="700" type="line"/>
    </contour>
    <contour>
      <point x="134" y="295" type="line"/>
      <point x="225" y="295" type="line"/>
      <point x="854" y="0" type="line"/>
      <point x="937" y="0" type="line"/>
      <point x="247" y="325" type="line"/>
      <point x="240" y="328" type="line"/>
      <point x="134" y="328" type="line"/>
    </contour>
    <contour>
      <point x="204" y="313" type="line"/>
      <point x="245" y="302" type="line"/>
      <point x="939" y="700" type="line"/>
      <point x="873" y="700" type="line"/>
    </contour>
  </outline>
</glyph>
<glyph name="L" format="2">
  <advance width="970"/>
  <unicode hex="004C"/>
  <outline>
    <contour>
      <point x="120" y="0" type="line"/>
      <point x="160" y="0" type="line"/>
      <point x="160" y="700" type="line"/>
      <point x="120" y="700" type="line"/>
    </contour>
    <contour>
      <point x="140" y="0" type="line"/>
      <point x="930" y="0" type="line"/>
      <point x="930" y="36" type="line"/>
      <point x="140" y="36" type="line"/>
    </contour>
  </outline>
</glyph>
<glyph name="M" format="2">
  <advance width="1274"/>
  <unicode hex="004D"/>
  <outline>
    <contour>
      <point x="120" y="0" type="line"/>
      <point x="160" y="0" type="line"/>
      <point x="160" y="700" type="line"/>
      <point x="120" y="700" type="line"/>
    </contour>
    <contour>
      <point x="1154" y="0" type="line"/>
      <point x="1154" y="700" type="line"/>
      <point x="1114" y="700" type="line"/>
      <point x="1114" y="0" type="line"/>
    </contour>
    <contour>
      <point x="1132" y="664" type="line"/>
      <point x="1114" y="700" type="line"/>
      <point x="613" y="261" type="line"/>
      <point x="661" y="261" type="line"/>
      <point x="160" y="700" type="line"/>
      <point x="142" y="664" type="line"/>
      <point x="621" y="241" type="line"/>
      <point x="653" y="241" type="line"/>
    </contour>
  </outline>
</glyph>
<glyph name="N" format="2">
  <advance width="1180"/>
  <unicode hex="004E"/>
  <outline>
    <contour>
      <point x="120" y="0" type="line"/>
      <point x="160" y="0" type="line"/>
      <point x="160" y="700" type="line"/>
      <point x="120" y="700" type="line"/>
    </contour>
    <contour>
      <point x="143" y="664" type="line"/>
      <point x="1020" y="0" type="line"/>
      <point x="1039" y="37" type="line"/>
      <point x="160" y="700" type="line"/>
    </contour>
    <contour>
      <point x="1020" y="0" type="line"/>
      <point x="1060" y="0" type="line"/>
      <point x="1060" y="700" type="line"/>
      <point x="1020" y="700" type="line"/>
    </contour>
  </outline>
</glyph>
<glyph name="O" format="2">
  <advance width="1321"/>
  <unicode hex="004F"/>
  <outline>
    <contour>
      <point x="630" y="-10" type="curve" smooth="yes"/>
      <point x="690" y="-10" type="line" smooth="yes"/>
      <point x="1028" y="-10"/>
      <point x="1241" y="108"/>
      <point x="1241" y="352" type="curve" smooth="yes"/>
      <point x="1241" y="595"/>
      <point x="1028" y="710"/>
      <point x="690" y="710" type="curve" smooth="yes"/>
      <point x="630" y="710" type="line" smooth="yes"/>
      <point x="292" y="710"/>
      <point x="80" y="595"/>
      <point x="80" y="352" type="curve" smooth="yes"/>
      <point x="80" y="108"/>
      <point x="292" y="-10"/>
    </contour>
    <contour>
      <point x="630" y="26" type="line" smooth="yes"/>
      <point x="318" y="26"/>
      <point x="120" y="124"/>
      <point x="120" y="352" type="curve" smooth="yes"/>
      <point x="120" y="579"/>
      <point x="318" y="674"/>
      <point x="630" y="674" type="curve" smooth="yes"/>
      <point x="690" y="674" type="line" smooth="yes"/>
      <point x="1003" y="674"/>
      <point x="1201" y="579"/>
      <point x="1201" y="352" type="curve" smooth="yes"/>
      <point x="1201" y="124"/>
      <point x="1003" y="26"/>
      <point x="690" y="26" type="curve" smooth="yes"/>
    </contour>
  </outline>
</glyph>
<glyph name="P" format="2">
  <advance width="1101"/>
  <unicode hex="0050"/>
  <outline>
    <contour>
      <point x="120" y="0" type="line"/>
      <point x="160" y="0" type="line"/>
      <point x="160" y="700" type="line"/>
      <point x="120" y="700" type="line"/>
    </contour>
    <contour>
      <point x="140" y="660" type="line"/>
      <point x="630" y="660" type="line" smooth="yes"/>
      <point x="935" y="660"/>
      <point x="1022" y="575"/>
      <point x="1022" y="432" type="curve" smooth="yes"/>
      <point x="1022" y="289"/>
      <point x="935" y="205"/>
      <point x="630" y="205" type="curve" smooth="yes"/>
      <point x="140" y="205" type="line"/>
      <point x="140" y="165" type="line"/>
      <point x="620" y="165" type="line"/>
      <point x="995" y="165"/>
      <point x="1061" y="286"/>
      <point x="1061" y="432" type="curve" smooth="yes"/>
      <point x="1061" y="580"/>
      <point x="995" y="700"/>
      <point x="620" y="700" type="curve" smooth="yes"/>
      <point x="140" y="700" type="line"/>
    </contour>
  </outline>
</glyph>
<glyph name="Q" format="2">
  <advance width="1321"/>
  <unicode hex="0051"/>
  <outline>
    <contour>
      <point x="708" y="-130" type="line"/>
      <point x="752" y="-130" type="line"/>
      <point x="653" y="13" type="line"/>
      <point x="621" y="-5" type="line"/>
    </contour>
    <component base="O"/>
  </outline>
</glyph>
<glyph name="R" format="2">
  <advance width="1171"/>
  <unicode hex="0052"/>
  <outline>
    <contour>
      <point x="980" y="0" type="line"/>
      <point x="1048" y="0" type="line"/>
      <point x="913" y="98" type="line" smooth="yes"/>
      <point x="826" y="161"/>
      <point x="778" y="187"/>
      <point x="740" y="185" type="curve"/>
      <point x="723" y="185" type="line"/>
    </contour>
    <contour>
      <point x="120" y="0" type="line"/>
      <point x="160" y="0" type="line"/>
      <point x="160" y="700" type="line"/>
      <point x="120" y="700" type="line"/>
    </contour>
    <contour>
      <point x="140" y="660" type="line"/>
      <point x="640" y="660" type="line" smooth="yes"/>
      <point x="935" y="660"/>
      <point x="1018" y="575"/>
      <point x="1018" y="432" type="curve" smooth="yes"/>
      <point x="1018" y="289"/>
      <point x="935" y="205"/>
      <point x="640" y="205" type="curve" smooth="yes"/>
      <point x="140" y="205" type="line"/>
      <point x="140" y="165" type="line"/>
      <point x="620" y="165" type="line" smooth="yes"/>
      <point x="995" y="165"/>
      <point x="1061" y="286"/>
      <point x="1061" y="432" type="curve" smooth="yes"/>
      <point x="1061" y="580"/>
      <point x="995" y="700"/>
      <point x="620" y="700" type="curve" smooth="yes"/>
      <point x="140" y="700" type="line"/>
    </contour>
  </outline>
</glyph>
<glyph name="S" format="2">
  <advance width="1160"/>
  <unicode hex="0053"/>
  <outline>
    <contour>
      <point x="1080" y="191" type="curve" smooth="yes"/>
      <point x="1080" y="317"/>
      <point x="1000" y="364"/>
      <point x="706" y="372" type="curve" smooth="yes"/>
      <point x="492" y="378" type="line" smooth="yes"/>
      <point x="283" y="384"/>
      <point x="144" y="412"/>
      <point x="144" y="518" type="curve"/>
      <point x="144" y="615"/>
      <point x="257" y="672"/>
      <point x="525" y="672" type="curve" smooth="yes"/>
      <point x="596" y="672" type="line" smooth="yes"/>
      <point x="806" y="672"/>
      <point x="941" y="629"/>
      <point x="1044" y="575" type="curve"/>
      <point x="1066" y="608" type="line"/>
      <point x="954" y="666"/>
      <point x="794" y="708"/>
      <point x="593" y="708" type="curve" smooth="yes"/>
      <point x="525" y="708" type="line" smooth="yes"/>
      <point x="238" y="708"/>
      <point x="105" y="642"/>
      <point x="105" y="518" type="curve" smooth="yes"/>
      <point x="105" y="401"/>
      <point x="194" y="350"/>
      <point x="478" y="342" type="curve" smooth="yes"/>
      <point x="692" y="336" type="line" smooth="yes"/>
      <point x="922" y="330"/>
      <point x="1041" y="310"/>
      <point x="1041" y="197" type="curve" smooth="yes"/>
      <point x="1041" y="85"/>
      <point x="919" y="28"/>
      <point x="591" y="28" type="curve" smooth="yes"/>
      <point x="520" y="28" type="line" smooth="yes"/>
      <point x="343" y="28"/>
      <point x="203" y="70"/>
      <point x="97" y="125" type="curve"/>
      <point x="80" y="92" type="line"/>
      <point x="195" y="33"/>
      <point x="356" y="-8"/>
      <point x="523" y="-8" type="curve" smooth="yes"/>
      <point x="591" y="-8" type="line" smooth="yes"/>
      <point x="938" y="-8"/>
      <point x="1080" y="64"/>
    </contour>
  </outline>
</glyph>
<glyph name="T" format="2">
  <advance width="1140"/>
  <unicode hex="0054"/>
  <outline>
    <contour>
      <point x="550" y="0" type="line"/>
      <point x="590" y="0" type="line"/>
      <point x="590" y="700" type="line"/>
      <point x="550" y="700" type="line"/>
    </contour>
    <contour>
      <point x="40" y="664" type="line"/>
      <point x="1100" y="664" type="line"/>
      <point x="1100" y="700" type="line"/>
      <point x="40" y="700" type="line"/>
    </contour>
  </outline>
</glyph>
<glyph name="U" format="2">
  <advance width="1181"/>
  <unicode hex="0055"/>
  <outline>
    <contour>
      <point x="590" y="-10" type="curve" smooth="yes"/>
      <point x="879" y="-10"/>
      <point x="1061" y="108"/>
      <point x="1061" y="352" type="curve" smooth="yes"/>
      <point x="1061" y="700" type="line"/>
      <point x="1021" y="700" type="line"/>
      <point x="1021" y="352" type="line" smooth="yes"/>
      <point x="1021" y="124"/>
      <point x="854" y="26"/>
      <point x="590" y="26" type="curve" smooth="yes"/>
      <point x="327" y="26"/>
      <point x="160" y="124"/>
      <point x="160" y="352" type="curve" smooth="yes"/>
      <point x="160" y="700" type="line"/>
      <point x="120" y="700" type="line"/>
      <point x="120" y="352" type="line" smooth="yes"/>
      <point x="120" y="108"/>
      <point x="301" y="-10"/>
    </contour>
  </outline>
</glyph>
<glyph name="V" format="2">
  <advance width="1170"/>
  <unicode hex="0056"/>
  <outline>
    <contour>
      <point x="1130" y="700" type="line"/>
      <point x="1084" y="700" type="line"/>
      <point x="583" y="0" type="line"/>
      <point x="628" y="0" type="line"/>
    </contour>
    <contour>
      <point x="94" y="700" type="line"/>
      <point x="40" y="700" type="line"/>
      <point x="548" y="0" type="line"/>
      <point x="597" y="0" type="line"/>
    </contour>
    <contour>
      <point x="618" y="36" type="line"/>
      <point x="558" y="36" type="line"/>
      <point x="558" y="0" type="line"/>
      <point x="618" y="0" type="line"/>
    </contour>
  </outline>
</glyph>
<glyph name="W" format="2">
  <advance width="1367"/>
  <unicode hex="0057"/>
  <outline>
    <contour>
      <point x="1324" y="700" type="line"/>
      <point x="1283" y="700" type="line"/>
      <point x="986" y="62" type="line"/>
      <point x="998" y="62" type="line"/>
      <point x="693" y="700" type="line"/>
      <point x="667" y="700" type="line"/>
      <point x="376" y="52" type="line"/>
      <point x="393" y="52" type="line"/>
      <point x="83" y="700" type="line"/>
      <point x="40" y="700" type="line"/>
      <point x="373" y="0" type="line"/>
      <point x="391" y="0" type="line"/>
      <point x="684" y="656" type="line"/>
      <point x="668" y="655" type="line"/>
      <point x="983" y="0" type="line"/>
      <point x="1000" y="0" type="line"/>
    </contour>
  </outline>
</glyph>
<glyph name="X" format="2">
  <advance width="1020"/>
  <unicode hex="0058"/>
  <outline>
    <contour>
      <point x="920" y="0" type="line"/>
      <point x="980" y="0" type="line"/>
      <point x="520" y="369" type="line"/>
      <point x="110" y="700" type="line"/>
      <point x="50" y="700" type="line"/>
      <point x="495" y="351" type="line"/>
    </contour>
    <contour>
      <point x="42" y="-2" type="line"/>
      <point x="90" y="0" type="line"/>
      <point x="511" y="351" type="line"/>
      <point x="523" y="349" type="line"/>
      <point x="970" y="700" type="line"/>
      <point x="920" y="700" type="line"/>
      <point x="503" y="368" type="line"/>
      <point x="491" y="370" type="line"/>
    </contour>
  </outline>
</glyph>
<glyph name="Y" format="2">
  <advance width="990"/>
  <unicode hex="0059"/>
  <outline>
    <contour>
      <point x="960" y="700" type="line"/>
      <point x="910" y="700" type="line"/>
      <point x="494" y="200" type="line"/>
      <point x="506" y="171" type="line"/>
    </contour>
    <contour>
      <point x="80" y="700" type="line"/>
      <point x="30" y="700" type="line"/>
      <point x="481" y="171" type="line"/>
      <point x="504" y="200" type="line"/>
    </contour>
    <contour>
      <point x="515" y="211" type="line"/>
      <point x="475" y="211" type="line"/>
      <point x="475" y="0" type="line"/>
      <point x="515" y="0" type="line"/>
    </contour>
  </outline>
</glyph>
<glyph name="Z" format="2">
  <advance width="1200"/>
  <unicode hex="005A"/>
  <outline>
    <contour>
      <point x="120" y="36" type="line"/>
      <point x="155" y="16" type="line"/>
      <point x="1080" y="664" type="line"/>
      <point x="1045" y="684" type="line"/>
    </contour>
    <contour>
      <point x="120" y="664" type="line"/>
      <point x="1080" y="664" type="line"/>
      <point x="1080" y="700" type="line"/>
      <point x="120" y="700" type="line"/>
    </contour>
    <contour>
      <point x="120" y="0" type="line"/>
      <point x="1080" y="0" type="line"/>
      <point x="1080" y="36" type="line"/>
      <point x="120" y="36" type="line"/>
    </contour>
  </outline>
</glyph>
<glyph name="acute" format="2">
  <advance width="250"/>
  <unicode hex="00B4"/>
  <outline>
    <contour>
      <point x="30" y="730" type="line"/>
      <point x="220" y="738" type="line"/>
      <point x="220" y="770" type="line"/>
      <point x="30" y="760" type="line"/>
    </contour>
  </outline>
</glyph>
<glyph name="arrowleft" format="2">
  <advance width="1069"/>
  <unicode hex="2190"/>
  <outline>
    <contour>
      <point x="136" y="371" type="line"/>
      <point x="136" y="342" type="line"/>
      <point x="1059" y="336" type="line"/>
      <point x="1059" y="377" type="line"/>
    </contour>
    <contour>
      <point x="195" y="408" type="line"/>
      <point x="5" y="356" type="line"/>
      <point x="194" y="306" type="line"/>
    </contour>
  </outline>
</glyph>
<glyph name="arrowup" format="2">
  <advance width="302"/>
  <unicode hex="2191"/>
  <outline>
    <contour>
      <point x="165" y="659" type="line"/>
      <point x="136" y="659" type="line"/>
      <point x="130" y="-110" type="line"/>
      <point x="171" y="-110" type="line"/>
    </contour>
    <contour>
      <point x="202" y="600" type="line"/>
      <point x="150" y="790" type="line"/>
      <point x="100" y="601" type="line"/>
    </contour>
  </outline>
</glyph>
<glyph name="arrowright" format="2">
  <advance width="1069"/>
  <unicode hex="2192"/>
  <outline>
    <contour>
      <point x="933" y="345" type="line"/>
      <point x="933" y="374" type="line"/>
      <point x="10" y="380" type="line"/>
      <point x="10" y="339" type="line"/>
    </contour>
    <contour>
      <point x="874" y="308" type="line"/>
      <point x="1064" y="360" type="line"/>
      <point x="875" y="410" type="line"/>
    </contour>
  </outline>
</glyph>
<glyph name="arrowdown" format="2">
  <advance width="302"/>
  <unicode hex="2193"/>
  <outline>
    <contour>
      <point x="137" y="21" type="line"/>
      <point x="166" y="21" type="line"/>
      <point x="172" y="790" type="line"/>
      <point x="131" y="790" type="line"/>
    </contour>
    <contour>
      <point x="100" y="80" type="line"/>
      <point x="152" y="-110" type="line"/>
      <point x="202" y="79" type="line"/>
    </contour>
  </outline>
</glyph>
<glyph name="dot" format="2">
  <advance width="140"/>
  <unicode hex="27D1"/>
  <outline>
    <contour>
      <point x="50" y="730" type="line"/>
      <point x="90" y="730" type="line"/>
      <point x="90" y="790" type="line"/>
      <point x="50" y="790" type="line"/>
    </contour>
  </outline>
</glyph>
<glyph name="I.narrow" format="2">
  <advance width="280"/>
  <outline>
    <contour>
      <point x="120" y="0" type="line"/>
      <point x="160" y="0" type="line"/>
      <point x="160" y="700" type="line"/>
      <point x="120" y="700" type="line"/>
    </contour>
  </outline>
</glyph>
<glyph name="IJ" format="2">
  <advance width="1181"/>
  <outline>
    <contour>
      <point x="160" y="433" type="line"/>
      <point x="160" y="700" type="line"/>
      <point x="120" y="700" type="line"/>
      <point x="120" y="433" type="line"/>
    </contour>
    <contour>
      <point x="590" y="-10" type="curve" smooth="yes"/>
      <point x="879" y="-10"/>
      <point x="1061" y="108"/>
      <point x="1061" y="352" type="curve" smooth="yes"/>
      <point x="1061" y="700" type="line"/>
      <point x="1021" y="700" type="line"/>
      <point x="1021" y="352" type="line" smooth="yes"/>
      <point x="1021" y="124"/>
      <point x="854" y="26"/>
      <point x="590" y="26" type="curve" smooth="yes"/>
      <point x="327.0" y="26.0"/>
      <point x="160" y="111.97546012269939"/>
      <point x="160" y="312" type="curve" smooth="yes"/>
      <point x="160" y="343" type="line"/>
      <point x="120" y="343" type="line"/>
      <point x="120" y="312" type="line" smooth="yes"/>
      <point x="120" y="94.96132596685081"/>
      <point x="301.0" y="-10.0"/>
    </contour>
  </outline>
</glyph>
<glyph name="J.narrow" format="2">
  <advance width="876"/>
  <outline>
    <contour>
      <point x="285" y="-10" type="curve" smooth="yes"/>
      <point x="574" y="-10"/>
      <point x="756" y="108"/>
      <point x="756" y="352" type="curve" smooth="yes"/>
      <point x="756" y="700" type="line"/>
      <point x="716" y="700" type="line"/>
      <point x="716" y="352" type="line" smooth="yes"/>
      <point x="716" y="124"/>
      <point x="549" y="26"/>
      <point x="285" y="26" type="curve" smooth="yes"/>
      <point x="229" y="26"/>
      <point x="178" y="32"/>
      <point x="132" y="42" type="curve"/>
      <point x="120" y="5" type="line"/>
      <point x="170" y="-5"/>
      <point x="225" y="-10"/>
    </contour>
  </outline>
</glyph>
<glyph name="S.closed" format="2">
  <advance width="1175"/>
  <outline>
    <contour>
      <point x="1095" y="191" type="curve" smooth="yes"/>
      <point x="1095" y="317"/>
      <point x="1015" y="364"/>
      <point x="721" y="372" type="curve" smooth="yes"/>
      <point x="487" y="378" type="line" smooth="yes"/>
      <point x="278" y="383"/>
      <point x="149" y="412"/>
      <point x="149" y="518" type="curve"/>
      <point x="149" y="615"/>
      <point x="252" y="672"/>
      <point x="520" y="672" type="curve" smooth="yes"/>
      <point x="651" y="672" type="line" smooth="yes"/>
      <point x="906" y="672"/>
      <point x="997" y="617"/>
      <point x="1009" y="479" type="curve"/>
      <point x="1048" y="479" type="line"/>
      <point x="1039" y="633"/>
      <point x="939" y="708"/>
      <point x="648" y="708" type="curve" smooth="yes"/>
      <point x="520" y="708" type="line" smooth="yes"/>
      <point x="233" y="708"/>
      <point x="110" y="642"/>
      <point x="110" y="518" type="curve" smooth="yes"/>
      <point x="110" y="401"/>
      <point x="189" y="349"/>
      <point x="473" y="342" type="curve" smooth="yes"/>
      <point x="707" y="336" type="line" smooth="yes"/>
      <point x="937" y="330"/>
      <point x="1056" y="310"/>
      <point x="1056" y="197" type="curve" smooth="yes"/>
      <point x="1056" y="85"/>
      <point x="954" y="28"/>
      <point x="626" y="28" type="curve" smooth="yes"/>
      <point x="535" y="28" type="line" smooth="yes"/>
      <point x="324" y="28"/>
      <point x="120" y="60"/>
      <point x="120" y="221" type="curve"/>
      <point x="80" y="221" type="line"/>
      <point x="84" y="59"/>
      <point x="229" y="-8"/>
      <point x="538" y="-8" type="curve" smooth="yes"/>
      <point x="626" y="-8" type="line" smooth="yes"/>
      <point x="973" y="-8"/>
      <point x="1095" y="64"/>
    </contour>
  </outline>
</glyph>
